<?xml version="1.0" encoding="utf-8"?>
<!-- Generator: Adobe Illustrator 25.0.1, SVG Export Plug-In . SVG Version: 6.00 Build 0)  -->
<svg version="1.1" id="Capa_1" xmlns="http://www.w3.org/2000/svg" xmlns:xlink="http://www.w3.org/1999/xlink" x="0px" y="0px"
	 viewBox="0 0 151 87" style="enable-background:new 0 0 151 87;" xml:space="preserve">
<style type="text/css">
	.st0{fill:#312783;}
	.st1{fill:#E4003A;}
	.st2{fill:#FFFFFF;}
	.st3{fill-rule:evenodd;clip-rule:evenodd;fill:#E30613;}
</style>
<g>
	<g>
		<path class="st0" d="M14.38,73.15H9.11l-1.39,4.41H5.85l4.89-14.46h2.07l4.89,14.46h-1.96L14.38,73.15z M13.92,71.67l-0.68-2.2
			c-0.26-0.81-0.51-1.61-0.75-2.41c-0.24-0.8-0.47-1.62-0.71-2.46h-0.09c-0.22,0.84-0.45,1.66-0.68,2.46
			c-0.24,0.8-0.49,1.61-0.75,2.41l-0.68,2.2H13.92z"/>
		<path class="st0" d="M22.17,70.09l-3.92-6.99h2.03l1.96,3.7c0.19,0.34,0.37,0.67,0.54,0.98c0.17,0.32,0.36,0.69,0.58,1.11h0.09
			c0.21-0.43,0.39-0.8,0.54-1.11c0.15-0.32,0.32-0.64,0.5-0.98l1.92-3.7h1.94l-3.95,7.08l4.21,7.39h-2.03l-2.12-3.9
			c-0.19-0.35-0.39-0.72-0.58-1.09c-0.2-0.38-0.42-0.78-0.65-1.22h-0.09c-0.21,0.44-0.4,0.85-0.6,1.22
			c-0.19,0.37-0.37,0.74-0.55,1.09l-2.09,3.9h-1.94L22.17,70.09z"/>
		<path class="st0" d="M37.36,73.15h-5.27l-1.39,4.41h-1.87l4.89-14.46h2.07l4.89,14.46h-1.96L37.36,73.15z M36.89,71.67l-0.68-2.2
			c-0.26-0.81-0.51-1.61-0.75-2.41c-0.24-0.8-0.47-1.62-0.71-2.46h-0.09c-0.22,0.84-0.45,1.66-0.68,2.46
			c-0.24,0.8-0.49,1.61-0.75,2.41l-0.68,2.2H36.89z"/>
		<path class="st0" d="M45.87,70.33c0-1.16,0.16-2.2,0.48-3.13c0.32-0.93,0.77-1.71,1.34-2.36c0.57-0.65,1.25-1.14,2.04-1.49
			c0.79-0.35,1.64-0.52,2.57-0.52c0.88,0,1.65,0.18,2.32,0.54c0.66,0.36,1.21,0.78,1.63,1.25l-1.04,1.17
			c-0.38-0.41-0.8-0.74-1.27-0.98c-0.46-0.24-1-0.36-1.62-0.36c-0.69,0-1.32,0.14-1.87,0.41c-0.56,0.27-1.04,0.66-1.43,1.17
			c-0.4,0.51-0.71,1.12-0.93,1.84c-0.22,0.72-0.33,1.53-0.33,2.43c0,0.91,0.11,1.73,0.32,2.46c0.21,0.73,0.51,1.35,0.89,1.86
			c0.38,0.52,0.85,0.91,1.4,1.19c0.55,0.28,1.17,0.42,1.86,0.42c0.71,0,1.32-0.14,1.84-0.42c0.52-0.28,1.02-0.68,1.49-1.19
			l1.04,1.12c-0.57,0.66-1.22,1.18-1.94,1.54c-0.72,0.37-1.54,0.55-2.47,0.55c-0.91,0-1.75-0.17-2.52-0.51s-1.44-0.83-2.01-1.47
			c-0.57-0.64-1.01-1.43-1.32-2.36C46.03,72.56,45.87,71.51,45.87,70.33z"/>
		<path class="st0" d="M63.75,77.83c-0.91,0-1.75-0.18-2.5-0.53c-0.76-0.35-1.41-0.86-1.95-1.51c-0.54-0.65-0.97-1.45-1.27-2.38
			c-0.3-0.93-0.45-1.98-0.45-3.14c0-1.16,0.15-2.2,0.45-3.12c0.3-0.92,0.72-1.7,1.27-2.34c0.54-0.64,1.19-1.13,1.95-1.47
			c0.76-0.34,1.59-0.51,2.5-0.51c0.91,0,1.75,0.17,2.5,0.52c0.76,0.35,1.41,0.84,1.96,1.48c0.55,0.64,0.98,1.42,1.28,2.34
			c0.3,0.92,0.45,1.95,0.45,3.1c0,1.16-0.15,2.21-0.45,3.14c-0.3,0.93-0.73,1.73-1.28,2.38c-0.55,0.65-1.21,1.16-1.96,1.51
			C65.49,77.65,64.66,77.83,63.75,77.83z M63.75,76.22c0.65,0,1.23-0.14,1.75-0.42c0.52-0.28,0.97-0.68,1.34-1.2
			c0.37-0.52,0.66-1.15,0.87-1.87c0.21-0.73,0.31-1.55,0.31-2.46c0-0.9-0.1-1.7-0.31-2.42c-0.21-0.72-0.5-1.33-0.87-1.83
			c-0.38-0.5-0.82-0.89-1.34-1.16c-0.52-0.27-1.11-0.41-1.75-0.41c-0.65,0-1.23,0.14-1.75,0.41c-0.52,0.27-0.97,0.66-1.35,1.16
			c-0.37,0.5-0.66,1.11-0.87,1.83c-0.21,0.72-0.31,1.53-0.31,2.42c0,0.91,0.1,1.73,0.31,2.46c0.21,0.73,0.5,1.35,0.87,1.87
			c0.38,0.52,0.82,0.92,1.35,1.2C62.52,76.08,63.1,76.22,63.75,76.22z"/>
		<path class="st0" d="M72.81,63.1h1.83V76h6.33v1.57h-8.16V63.1z"/>
		<path class="st0" d="M83.28,63.1h4.43c0.79,0,1.52,0.07,2.18,0.22c0.66,0.15,1.22,0.39,1.69,0.72c0.46,0.33,0.82,0.77,1.08,1.31
			c0.26,0.54,0.39,1.21,0.39,2.01c0,0.76-0.13,1.43-0.39,1.98c-0.26,0.56-0.62,1.02-1.09,1.39c-0.47,0.37-1.03,0.64-1.69,0.83
			s-1.38,0.28-2.17,0.28h-2.6v5.73h-1.83V63.1z M87.49,70.33c1.26,0,2.2-0.24,2.81-0.72c0.61-0.48,0.92-1.23,0.92-2.26
			c0-1.04-0.31-1.77-0.93-2.17c-0.62-0.4-1.55-0.61-2.8-0.61h-2.38v5.75H87.49z"/>
		<path class="st0" d="M101.25,73.15h-5.27l-1.39,4.41h-1.87l4.89-14.46h2.07l4.9,14.46h-1.96L101.25,73.15z M100.79,71.67
			l-0.68-2.2c-0.26-0.81-0.52-1.61-0.75-2.41c-0.24-0.8-0.47-1.62-0.71-2.46h-0.09c-0.22,0.84-0.45,1.66-0.68,2.46
			c-0.24,0.8-0.49,1.61-0.75,2.41l-0.68,2.2H100.79z"/>
		<path class="st0" d="M108.51,64.64h-4.37V63.1h10.58v1.54h-4.37v12.92h-1.85V64.64z"/>
		<path class="st0" d="M125.02,77.56l-3.48-6.11h-2.62v6.11h-1.83V63.1h4.52c0.73,0,1.41,0.07,2.04,0.21
			c0.62,0.14,1.16,0.37,1.61,0.69c0.45,0.32,0.8,0.74,1.05,1.26c0.25,0.51,0.38,1.15,0.38,1.9c0,1.13-0.29,2.04-0.88,2.71
			c-0.59,0.68-1.37,1.14-2.36,1.39l3.66,6.31H125.02z M118.91,69.95h2.43c1.13,0,2-0.23,2.6-0.69c0.6-0.46,0.9-1.16,0.9-2.11
			c0-0.95-0.3-1.62-0.9-2.01c-0.6-0.38-1.47-0.57-2.6-0.57h-2.43V69.95z"/>
		<path class="st0" d="M129.65,63.1h1.83v14.46h-1.83V63.1z"/>
		<path class="st0" d="M141.82,73.15h-5.27l-1.39,4.41h-1.87l4.89-14.46h2.07l4.9,14.46h-1.96L141.82,73.15z M141.36,71.67
			l-0.68-2.2c-0.26-0.81-0.52-1.61-0.75-2.41c-0.24-0.8-0.47-1.62-0.71-2.46h-0.09c-0.22,0.84-0.45,1.66-0.68,2.46
			c-0.24,0.8-0.49,1.61-0.75,2.41l-0.68,2.2H141.36z"/>
	</g>
	<g>
		<rect x="5.85" y="7.84" class="st0" width="48.08" height="48.08"/>
		<g>
			<g>
				<g>
					<g>
						<polygon class="st1" points="35.64,31.58 53.93,7.84 51.23,7.84 32.88,31.58 						"/>
					</g>
					<g>
						<path class="st2" d="M42.59,42.18c0.84,2.34,2.56,8.45,3.25,8.93H41.3c0,0-0.02-0.9-0.21-1.6c-0.2-0.7-1.84-5.97-1.84-5.97
							h-7.2l-1.13,1.6c0,0,1.36,4.26,1.44,4.47c0.15,0.38,0.8,1.5,0.8,1.5h-4.34c0,0-0.11-0.65-0.16-0.92
							c-0.03-0.22-0.41-1.42-0.41-1.42s-0.99,1.08-1.25,1.58c-0.27,0.5-0.39,0.76-0.39,0.76h-3.4c0,0-0.11-0.65-0.16-0.92
							c-0.03-0.22-0.45-1.51-0.45-1.51s-0.95,1.16-1.22,1.65c-0.27,0.5-0.38,0.78-0.38,0.78h-3.36c0,0,0.95-0.9,1.28-1.29
							c0.56-0.66,2.65-3.38,2.65-3.38l-0.84-2.9h-7.15c0,0-4.07,5.35-4.24,5.52C9.18,49.22,8,50.92,7.97,51.11H5.85v-1.35
							c0.04-0.04,0.07-0.07,0.08-0.08c0.06-0.05,3.09-3.8,5.87-7.5c2.5-3.23,4.84-6.37,5.04-6.66c0.5-0.72,1.21-2.28,1.21-2.28h3.7
							c0,0,0.11,1.44,0.22,1.78c0.1,0.31,2.35,7.69,2.4,7.77l1.24-1.59l-2.13-6.55c0,0-0.5-1.23-0.66-1.42h4.31
							c0,0-0.03,0.63,0.14,1.17c0.18,0.54,1.1,3.88,1.1,3.88s2.94-3.69,3.12-3.95c0.32-0.44,0.36-1.1,0.36-1.1h3.6
							c0,0-0.66,0.48-1.81,1.94c-0.39,0.49-4.18,5.32-4.18,5.32s0.33,1.13,0.49,1.69c0.04,0.16,0.07,0.27,0.07,0.28
							c0,0.01,0.08-0.1,0.23-0.28c0.98-1.24,5.44-7.08,5.71-7.58c0.22-0.4,0.54-0.86,0.73-1.36h3.51c0,0,0.08,1.05,0.19,1.34
							L42.59,42.18z M37.25,36.65c-0.52,1.11-3.55,4.8-3.55,4.8h4.8c0,0-0.93-2.87-1.09-3.51c-0.13-0.51-0.09-1.18-0.09-1.26
							C37.31,36.62,37.3,36.53,37.25,36.65z M18.8,36.65c-0.52,1.11-3.55,4.8-3.55,4.8h4.8c0,0-0.93-2.87-1.09-3.51
							c-0.13-0.51-0.09-1.18-0.09-1.26C18.87,36.62,18.86,36.53,18.8,36.65z M26.03,47.84l1.32-1.82c-0.12-0.13-0.87-2.39-0.87-2.39
							l-1.28,1.66L26.03,47.84z"/>
					</g>
				</g>
			</g>
		</g>
	</g>
	<g>
		<path class="st3" d="M104.24,22.43c0,0-3.99-0.15-7.34,0.78c-4.06,2.87-6.01,6-6.01,8.74c0,4.69,5.89,8.73,13.35,9.25
			c0.52,0,4.98,0,7.46-0.65c3.93-2.87,6.03-6,6.03-8.73C117.73,26.86,111.83,22.95,104.24,22.43z"/>
		<path class="st3" d="M98.15,12.51c2.2-0.4,8.06-1.04,8.97-1.04c8.11-0.39,18.32,0.39,19.9,0.52c-6.55-2.61-14.27-4.17-22.78-4.17
			c-22.51,0-40.71,10.82-40.71,23.99c0,6.78,4.71,12.9,12.43,17.34c7.86,0.52,21.47-2.61,21.47-2.61c7.81-1.8,11.26-4.17,13.09-5.21
			c-1.44,0.4-7.03,1.83-11.52,1.83c-7.73,0-27.61-3-27.61-13.56C71.39,19.72,86.49,14.65,98.15,12.51z"/>
		<path class="st3" d="M132.64,14.61c-7.85-0.65-21.47,2.47-21.47,2.47c-7.44,1.84-11.38,4.18-13.09,5.35
			c1.31-0.52,9.56-1.83,11.52-1.83c7.72-0.4,27.48,2.87,27.48,13.56c0,11.47-21.2,16.55-32.85,17.73c-1.05,0.13-2.1,0.13-2.88,0.26
			c-7.99,0.52-18.19-0.26-19.77-0.4c6.41,2.61,14.27,4.05,22.65,4.05c22.51-0.13,40.83-10.82,40.83-23.98
			C145.08,25.04,140.23,19.04,132.64,14.61z"/>
	</g>
</g>
</svg>
